<?xml version="1.0" encoding="utf-8"?>
<!-- Generator: Adobe Illustrator 22.1.0, SVG Export Plug-In . SVG Version: 6.00 Build 0)  -->
<svg version="1.1" id="Layer_1" xmlns="http://www.w3.org/2000/svg" xmlns:xlink="http://www.w3.org/1999/xlink" x="0px" y="0px"
	 viewBox="0 0 121.7 157.9" style="enable-background:new 0 0 121.7 157.9;" xml:space="preserve">
<style type="text/css">
	.st0{fill:#D5B036;}
	.st1{fill:none;stroke:#000000;stroke-width:4;stroke-miterlimit:10;}
	.st2{fill:none;stroke:#000000;stroke-miterlimit:10;}
	.st3{fill:none;stroke:#000000;stroke-width:3;stroke-miterlimit:10;}
	.st4{fill:#DD971A;}
	.st5{fill:#E5A812;}
	.st6{fill:#F3B622;}
	.st7{fill:#E39917;}
	.st8{fill:none;stroke:#000000;stroke-width:2;stroke-miterlimit:10;}
	.st9{fill:#DAB26C;}
	.st10{fill:#D28A53;}
	.st11{fill:#221000;}
	.st12{fill:#FFFFFF;}
	.st13{fill:none;stroke:#FFFFFF;stroke-width:3;stroke-miterlimit:10;}
	.st14{fill:none;stroke:#D28A53;stroke-width:3;stroke-miterlimit:10;}
	.st15{fill:none;stroke:#221000;stroke-width:3;stroke-miterlimit:10;}
	.st16{fill:none;stroke:#DAB26C;stroke-width:3;stroke-miterlimit:10;}
	.st17{fill:none;stroke:#221000;stroke-width:10;stroke-miterlimit:10;}
	.st18{fill:none;stroke:#DAB26C;stroke-width:4;stroke-miterlimit:10;}
	.st19{fill:#FCF7BC;}
	.st20{opacity:0.17;}
	.st21{fill:none;stroke:#221000;stroke-width:8;stroke-miterlimit:10;}
	.st22{fill:none;stroke:#221000;stroke-width:0.25;stroke-miterlimit:10;}
	.st23{fill:#2D1C0F;}
	.st24{fill:#C39F3B;stroke:#2D1C0F;stroke-miterlimit:10;}
	.st25{fill:#C39F3B;}
	.st26{fill:none;stroke:#2D1C0F;stroke-miterlimit:10;}
	.st27{fill:none;stroke:#D5B036;stroke-width:2;stroke-miterlimit:10;}
</style>
<g>
	<polygon class="st23" points="111.5,79.3 108.5,85.7 96.4,85.7 88,135.7 81,135.7 89.5,85.7 25.8,85.7 17.4,135.7 11.2,135.7 
		19.7,85.7 6.5,85.7 9.6,79.3 20.7,79.3 32.2,11.1 38.6,9.4 26.9,79.3 90.6,79.3 102.1,11.1 109.3,9.4 97.5,79.3 	"/>
	<polygon class="st0" points="84.6,55.6 68.5,151.7 61.5,151.7 72,88.3 42.1,88 37.1,116.8 30.1,116.8 43.1,36.1 50.1,36.1 
		44.2,75.7 74.3,75.7 77.7,55.6 	"/>
</g>
</svg>
