<?xml version="1.0" encoding="utf-8"?>
<!-- Generator: Adobe Illustrator 22.1.0, SVG Export Plug-In . SVG Version: 6.00 Build 0)  -->
<svg version="1.1" id="Layer_1" xmlns="http://www.w3.org/2000/svg" xmlns:xlink="http://www.w3.org/1999/xlink" x="0px" y="0px"
	 viewBox="0 0 432 432" style="enable-background:new 0 0 432 432;" xml:space="preserve">
<style type="text/css">
	.st0{fill:#D5B036;}
	.st1{fill:none;stroke:#000000;stroke-width:4;stroke-miterlimit:10;}
	.st2{fill:none;stroke:#000000;stroke-miterlimit:10;}
	.st3{fill:none;stroke:#000000;stroke-width:3;stroke-miterlimit:10;}
	.st4{fill:#DD971A;}
	.st5{fill:#E5A812;}
	.st6{fill:#F3B622;}
	.st7{fill:#E39917;}
	.st8{fill:none;stroke:#000000;stroke-width:2;stroke-miterlimit:10;}
	.st9{fill:#DAB26C;}
	.st10{fill:#D28A53;}
	.st11{fill:#221000;}
	.st12{fill:#FFFFFF;}
	.st13{fill:none;stroke:#FFFFFF;stroke-width:3;stroke-miterlimit:10;}
	.st14{fill:none;stroke:#D28A53;stroke-width:3;stroke-miterlimit:10;}
	.st15{fill:none;stroke:#221000;stroke-width:3;stroke-miterlimit:10;}
	.st16{fill:none;stroke:#DAB26C;stroke-width:3;stroke-miterlimit:10;}
	.st17{fill:none;stroke:#221000;stroke-width:10;stroke-miterlimit:10;}
	.st18{fill:none;stroke:#DAB26C;stroke-width:4;stroke-miterlimit:10;}
	.st19{fill:#FCF7BC;}
	.st20{opacity:0.17;}
	.st21{fill:none;stroke:#221000;stroke-width:8;stroke-miterlimit:10;}
	.st22{fill:none;stroke:#221000;stroke-width:0.25;stroke-miterlimit:10;}
	.st23{fill:#2D1C0F;}
	.st24{fill:#C39F3B;stroke:#2D1C0F;stroke-miterlimit:10;}
	.st25{fill:#C39F3B;}
	.st26{fill:none;stroke:#2D1C0F;stroke-miterlimit:10;}
	.st27{fill:none;stroke:#D5B036;stroke-width:2;stroke-miterlimit:10;}
</style>
<path class="st23" d="M204.4,166l-9.9,56.4h-6.7l4.6-26.3h-29.1l-4.6,26.3h-6.6l9.9-56.4h6.6l-4.2,24.3h29.1l4.2-24.3H204.4z"/>
<path class="st23" d="M241.1,214.9l-0.6,7.3h-5.9l0.4-5c-0.1,0-0.3-0.1-0.3-0.1c-3.2,3.7-6.8,6.1-12.8,6.1c-8.8,0-14.2-5-14.2-15.1
	c0-16.8,8.9-29,25.1-29c3.4,0,9.2,0.7,14.1,2.7L241.1,214.9z M239.7,185.7c-1.4-0.8-4.5-1.3-8-1.3c-13.8,0-17.5,13.9-17.5,23.2
	c0,5.5,2,10.9,8.8,10.9c7.2,0,11.6-5,12.7-10.2L239.7,185.7z"/>
<path class="st23" d="M251.8,222.2l6.2-35.5l0.5-6.3h5.6l-0.3,6c3.9-4.6,9-7.2,14.1-7.2c5.6,0,9.3,2.3,10.7,7.7
	c3.5-5.1,9.1-7.7,14.4-7.7c7.4,0,11.2,3.8,11.2,10.7c0,1.3-0.2,3.1-0.4,4.5l-4.9,27.8h-6.6l4.6-26.4c0.3-1.5,0.5-3,0.5-4.4
	c0-4-1.4-7-6.5-7c-6.3,0-11.6,5.5-12.5,10.5l-4.8,27.3h-6.6l4.7-26.3c0.3-1.3,0.4-3.1,0.4-4.8c0-3.5-1.3-6.6-6.6-6.6
	c-6.5,0-11.7,5.5-12.6,10.8l-4.6,27H251.8z"/>
<path class="st23" d="M321.1,222.2l6.2-35.5l0.5-6.3h5.6l-0.3,6c3.9-4.6,9-7.2,14.1-7.2c5.6,0,9.3,2.3,10.7,7.7
	c3.5-5.1,9.1-7.7,14.4-7.7c7.4,0,11.2,3.8,11.2,10.7c0,1.3-0.2,3.1-0.4,4.5l-4.9,27.8h-6.6l4.6-26.4c0.3-1.5,0.5-3,0.5-4.4
	c0-4-1.4-7-6.5-7c-6.3,0-11.6,5.5-12.5,10.5l-4.8,27.3h-6.6l4.7-26.3c0.3-1.3,0.4-3.1,0.4-4.8c0-3.5-1.3-6.6-6.6-6.6
	c-6.5,0-11.7,5.5-12.6,10.8l-4.6,27H321.1z"/>
<g>
	<polygon class="st23" points="151.8,166.1 148.8,172.5 136.7,172.5 128.2,222.5 121.2,222.5 129.7,172.5 66,172.5 57.6,222.5 
		51.5,222.5 59.9,172.5 46.7,172.5 49.8,166 61,166.1 72.4,97.8 78.9,96.2 67.1,166.1 130.8,166.1 142.3,97.9 149.5,96.2 
		137.7,166.1 	"/>
	<polygon class="st0" points="124.9,142.4 108.7,238.5 101.7,238.5 112.2,175.1 82.3,174.8 77.3,203.5 70.3,203.5 83.4,122.9 
		90.3,122.9 84.4,162.5 114.5,162.5 117.9,142.4 	"/>
</g>
</svg>
